<svg xmlns="http://www.w3.org/2000/svg" viewBox="0 0 21.11 21.21"><defs><style>.cls-1{fill:#fff;}</style></defs><title>Filter (Funnel)</title><g id="Layer_2" data-name="Layer 2"><g id="Layer_1-2" data-name="Layer 1"><g id="muSJUA.tif"><path class="cls-1" d="M10.52,0h8.76a1.86,1.86,0,0,1,1.06.26,1.61,1.61,0,0,1,.71,1s0,.08,0,.11,0,.29-.09.41L17,6.22,13.93,9.67a.56.56,0,0,0-.15.41v9.77a2.51,2.51,0,0,1-.06.55,1,1,0,0,1-1.31.75c-.41-.14-.81-.3-1.2-.46-.72-.28-1.43-.57-2.14-.87A3.26,3.26,0,0,1,8,19.1a2.42,2.42,0,0,1-.69-1.67c0-.48,0-1,0-1.44V10.06a.75.75,0,0,0-.2-.53L.11,1.75A.41.41,0,0,1,0,1.37,1.53,1.53,0,0,1,1.61,0h8.91ZM2.14,1.63l.12.15L5,4.76C6.23,6.17,7.46,7.63,8.86,8.94a.2.2,0,0,1,.06.18v8a.81.81,0,0,0,0,.16,1.05,1.05,0,0,0,.75,1.05l2.22.88.25.1V9.13a.29.29,0,0,1,.09-.22c.33-.31.66-.6,1-.93l5.54-6.13.18-.22Z"/></g></g></g></svg>